<?xml version="1.0" encoding="utf-8"?>
<!-- Generator: Adobe Illustrator 22.1.0, SVG Export Plug-In . SVG Version: 6.00 Build 0)  -->
<svg version="1.0" id="Layer_1" xmlns="http://www.w3.org/2000/svg" xmlns:xlink="http://www.w3.org/1999/xlink" x="0px" y="0px"
	 viewBox="0 0 128 128" style="enable-background:new 0 0 128 128;" xml:space="preserve">
<style type="text/css">
	.st0{fill:#625148;}
	.st1{fill:#FFFFFF;}
</style>
<g id="XMLID_1_">
	<path id="XMLID_10_" class="st0" d="M95.7,0H32.3C14.5,0,0,14.5,0,32.3v63.3C0,113.5,14.5,128,32.3,128h63.3
		c17.9,0,32.3-14.5,32.3-32.3V32.3C128,14.5,113.5,0,95.7,0z M64,99.2c-19.5,0-35.3-15.8-35.3-35.3S44.5,28.6,64,28.6
		s35.3,15.8,35.3,35.3C99.2,83.4,83.5,99.2,64,99.2z"/>
	<ellipse id="XMLID_13_" class="st0" cx="64" cy="63.9" rx="27.9" ry="27.9"/>
</g>
<g id="XMLID_6_">
	<path id="XMLID_18_" class="st1" d="M100.2,23.8c1.7,0,3.1,1.4,3.1,3.1s-1.4,3.1-3.1,3.1s-3.1-1.4-3.1-3.1
		C97.2,25.2,98.5,23.8,100.2,23.8 M100.2,16.8c-5.6,0-10.1,4.5-10.1,10.1S94.6,37,100.2,37s10.1-4.5,10.1-10.1
		C110.3,21.3,105.8,16.8,100.2,16.8L100.2,16.8z"/>
</g>
</svg>
