<?xml version="1.0" encoding="utf-8"?>
<!-- Generator: Adobe Illustrator 22.1.0, SVG Export Plug-In . SVG Version: 6.00 Build 0)  -->
<svg version="1.0" id="Layer_1" xmlns="http://www.w3.org/2000/svg" xmlns:xlink="http://www.w3.org/1999/xlink" x="0px" y="0px"
	 viewBox="0 0 738 214.5" style="enable-background:new 0 0 738 214.5;" xml:space="preserve">
<style type="text/css">
	.st0{fill:#000000;}
	.st1{fill:url(#XMLID_4_);}
	.st2{fill:url(#XMLID_5_);}
	.st3{fill:url(#XMLID_6_);}
	.st4{fill:url(#XMLID_7_);}
	.st5{fill:url(#XMLID_8_);}
	.st6{fill:url(#XMLID_9_);}
	.st7{fill:#ECE70D;}
	.st8{fill:url(#XMLID_10_);}
	.st9{fill:url(#XMLID_11_);}
	.st10{fill:url(#XMLID_12_);}
	.st11{fill:url(#XMLID_13_);}
	.st12{fill:url(#XMLID_14_);}
	.st13{fill:url(#XMLID_15_);}
	.st14{fill:url(#XMLID_16_);}
	.st15{fill:url(#XMLID_17_);}
	.st16{fill:url(#XMLID_18_);}
	.st17{fill:url(#XMLID_19_);}
</style>
<g id="XMLID_297_">
	<path id="XMLID_301_" class="st7" d="M661.5,53.9c0,1.4-1.1,2.5-2.5,2.5s-2.5-1.1-2.5-2.5c0-1.4,1.1-2.5,2.5-2.5
		S661.5,52.6,661.5,53.9z"/>
	<path id="XMLID_300_" class="st7" d="M670.5,54.8c0,1.9-1.5,3.4-3.4,3.4c-1.9,0-3.4-1.5-3.4-3.4c0-1.9,1.5-3.4,3.4-3.4
		C669,51.4,670.5,53,670.5,54.8z"/>
	<circle id="XMLID_299_" class="st7" cx="676.4" cy="58.8" r="4"/>
	<path id="XMLID_298_" class="st7" d="M689.6,67.1c0,2.4-2,4.4-4.4,4.4c-2.4,0-4.4-2-4.4-4.4c0-2.4,2-4.4,4.4-4.4
		C687.6,62.7,689.6,64.7,689.6,67.1z"/>
</g>
<g>
	<g id="XMLID_389_">
		<path id="XMLID_95_" class="st0" d="M271.8,165c-3.1,0-5.1,1.2-6,3.8c-0.4,1.2-0.6,3.8-0.6,7.8v15.6c0,1.5,0.1,3.7,0.1,6.7
			c0.1,3,0.2,5.2,0.2,6.6c0,1.3-0.4,1.9-1.1,1.9c-0.8,0-3.3-2.2-7.4-6.8l-21.3-23l-5.5-5.8c-0.3,5-0.4,11.4-0.4,19.2
			c0,6.3,0.2,10.3,0.7,12.1c0.5,1.8,2.7,2.7,6.5,2.7v1.2H221v-1.2c4.5-0.7,5.7-1.4,6.2-2.7c0.6-1.7,0.9-6.5,0.9-14.2v-19.3
			c-1.9-3.2-4.4-4.8-7.7-4.8v-1.2H231c1.4,0,2.3,0.1,2.5,0.4c2.8,3.7,8.4,10,16.7,19.2l6.3,7c2.5,2.7,4.7,4.8,6.7,6.6
			c0.1-0.9,0.2-1.9,0.2-2.8v-18c0-4-0.3-6.6-0.9-7.9c-1-2.2-3.2-3.3-6.5-3.3v-1.2h15.9V165z"/>
		<path id="XMLID_97_" class="st0" d="M321.5,207.2h-17.8v-1.2c3.5,0,5.3-0.6,5.3-1.6c0-0.3-0.2-1.1-0.7-2.2l-3.3-8.3
			c-0.7-1.9-1.9-2.9-3.5-2.9h-11c-1.2,0-2.1,0.6-2.8,1.9c-0.3,0.4-0.7,1.6-1.4,3.3c-1.5,4.2-2.2,6.5-2.2,6.9c0,1.1,0.9,1.9,2.5,2.3
			c0.6,0.2,1.8,0.4,3.8,0.6v1.2h-14v-1.2c2.8,0,5.1-2.5,7.1-7.4l11.2-28c0.2-0.7,0.6-1.4,0.9-2.2c1.4-3.2,2.2-4.8,2.7-4.8
			c0.3,0,0.7,0.4,1.2,1.4c0.4,0.7,1.6,3.3,3.5,7.9l11,26.7c1.1,2.5,1.9,4.1,2.4,4.7c1.1,1.2,2.6,1.7,4.8,1.7V207.2z M296.8,173.3
			c-0.1-0.3-0.2-0.7-0.5-1.2l-0.2-0.1c-0.6,0.7-1.9,3.7-3.9,8.8c-1.9,5-2.9,7.7-2.9,8.1l0.2,0.4c0.4,0.1,0.7,0.1,1.1,0.1h10.9
			c1.3,0,1.5-0.1,1.5-0.7L296.8,173.3z"/>
		<path id="XMLID_100_" class="st0" d="M345.4,207.2h-18.3V206c3,0,5.9-0.6,6-2.5c0-0.3,0-1,0.1-2.2c0.1-0.9,0.1-1.6,0.1-2.1V169
			c0-1.8-0.6-3-1.8-3.5c-0.7-0.3-2.2-0.5-4.3-0.5v-1.1h18.3v1.1c-3.8,0-5.6,1.1-5.6,3.2v31.6c0,2.1,0.2,3.6,0.7,4.5
			c0.7,1.3,1.9,1.9,3.8,1.8c0.6-0.1,1-0.1,1.1-0.1V207.2z"/>
		<path id="XMLID_102_" class="st0" d="M389.1,205.8c-0.2,0.9-0.9,1.4-2.3,1.4h-33.5v-1.3c0.1,0.1,0.2,0.1,0.6,0.1
			c2.4,0,4-0.6,4.7-1.9c0.7-1.3,1-4.5,1-9.6v-21.9c0-2.9-0.2-4.7-0.8-5.5c-0.7-1.1-2.4-1.7-5-2v-1.2h18.1v1.2
			c-3.9,0-5.8,1.3-5.8,3.8l-0.1,32.2c0,2,0.1,3.3,0.2,3.6c0.3,0.8,1.3,1.2,2.9,1.2c4.7,0,7.8-0.1,9.1-0.2c2.6-0.3,4.8-1.2,6.5-2.6
			c1.9-1.5,3.7-4.1,5.5-7.6l0.1-0.2h0.8c0.1,0.2,0.1,0.4,0.1,0.6C390.8,196.7,390.2,200.1,389.1,205.8z"/>
		<path id="XMLID_104_" class="st0" d="M423.5,204.8c-2.7,2.2-6,3.3-10.1,3.3c-6,0-10-0.5-12.3-1.5c-0.6-0.2-0.9-1.1-1-2.5
			c-0.1-0.9-0.4-4-0.9-9.1l1.2-0.2c1.6,3.6,3.2,6.3,4.7,7.9c2.2,2.5,4.9,3.7,8,3.7c2.7,0,4.9-0.9,6.6-2.5c1.7-1.7,2.6-3.9,2.6-6.6
			c0-3.7-2-6.5-6-8.5c-3.7-1.6-7.4-3.2-11.2-4.7c-4-2.2-6-5.2-6-9.2c0-3.5,1.3-6.3,4-8.6c2.5-2.2,5.5-3.2,9-3.2c1.2,0,3,0.3,5.3,1
			c2.4,0.6,4.1,0.9,5.3,0.9c0.9,0,1.6-0.1,2.2-0.2c0.6,4,1,7.5,1.1,10.3l-1.2,0.2c-3.3-7.3-7.4-10.9-12.3-10.9
			c-4.8,0-8.3,3.1-8.3,7.8c0,2.2,0.9,4,2.5,5.1c1.1,0.7,3.9,1.9,8.6,3.6c8.4,3,12.6,7.7,12.6,14.1
			C427.7,199.2,426.3,202.3,423.5,204.8z"/>
		<path id="XMLID_106_" class="st0" d="M498.9,204.9c-2,2.2-4.5,3.2-7.5,3.2c-2.2,0-4.3-0.9-6.1-2.8c-1.1-1.1-2.4-3-4-5.7
			c-2,2.7-3.8,4.7-5.5,5.8c-2.3,1.7-4.8,2.5-7.5,2.5c-3.3,0-6.1-1-8.3-3c-2.2-2-3.2-4.8-3.2-8.1c0-4.9,3.4-9.8,10.2-14.7
			c-2.9-3.4-4.3-6.5-4.3-9.4c0-2.5,1-4.7,3-6.3c1.9-1.6,4.2-2.4,6.7-2.4c2.3,0,4.2,0.6,5.9,1.7c1.8,1.3,2.7,3.1,2.7,5.3
			c0,2-0.9,3.9-2.9,5.5c-1.2,1-3,2.1-5.6,3.3c3.4,3.8,5.4,6,6,6.6c2.2,2.6,4.1,5,5.5,7.1c1.1-1.1,2-2.4,2.8-4c1-1.7,1.5-3.2,1.5-4.5
			c0-1.6-1.3-2.4-3.8-2.4v-1.1c0.9,0.1,2.2,0.1,4,0.1c2.3,0,5-0.1,7.9-0.3v1.1c-1.8,0-3.3,0.7-4.8,2.3c-0.4,0.4-1.4,2-3,4.5
			c-1.5,2.3-2.7,4.1-3.7,5.4c2.2,3.5,3.5,5.6,4,6.3c2.2,2.9,4.1,4.4,5.6,4.4c0.6,0,1.9-0.4,3.8-1.3L498.9,204.9z M467.9,183.2
			c-4,2.6-6,6.1-6,10.6c0,2.8,1,5.3,3,7.4c2,2.2,4.5,3.2,7.3,3.2c2.7,0,5.5-2,8.5-6C475.9,191.8,471.7,186.7,467.9,183.2z
			 M472.3,165.4c-3,0-5.5,2.1-5.5,5.1c0,2.2,1.7,5.1,5.1,8.6c3.9-2.2,5.9-4.7,5.9-7.8C477.8,167.9,475.7,165.4,472.3,165.4z"/>
		<path id="XMLID_110_" class="st0" d="M553.9,205.1c-2.7,1.4-6.3,2.1-10.6,2.1h-19.7v-1.4c1.9,0,3.2-0.1,3.9-0.4
			c1.4-0.4,2-1.4,2-2.9v-33.9c0-1.7-0.6-2.7-1.8-3.2c-0.5-0.2-1.9-0.2-4.2-0.2v-1.4h19.2c9.9,0,14.8,3.3,14.8,10.1
			c0,4.9-3.6,8.2-10.9,10c8.3,2.1,12.5,6.3,12.5,12.5C559.2,200.3,557.4,203.2,553.9,205.1z M541.6,165.2c-1.8,0-3,0.1-3.7,0.4
			c-1.2,0.4-1.9,1.4-1.9,2.9V181c0,1.3,0.3,2,0.9,2.4c0.3,0.2,1.2,0.3,2.7,0.3c1.8,0,3.2-0.1,4.1-0.3c2-0.5,3.7-1.6,4.9-3.4
			c1.1-1.7,1.7-3.6,1.7-5.8C550.3,168.5,547.1,165.2,541.6,165.2z M539.6,185c-1.2,0-2.1,0.1-2.5,0.3c-0.7,0.4-1,1.1-1,2.2V202
			c0,2.9,0.7,3.8,3.6,3.8c8.1,0,12.2-3.4,12.2-10.2C551.9,188.6,547.8,185,539.6,185z"/>
		<path id="XMLID_114_" class="st0" d="M610.2,207.2h-17.8v-1.2c3.5,0,5.3-0.6,5.3-1.6c0-0.3-0.2-1.1-0.7-2.2l-3.3-8.3
			c-0.7-1.9-1.9-2.9-3.5-2.9h-11c-1.2,0-2.1,0.6-2.8,1.9c-0.3,0.4-0.7,1.6-1.4,3.3c-1.5,4.2-2.2,6.5-2.2,6.9c0,1.1,0.9,1.9,2.5,2.3
			c0.6,0.2,1.8,0.4,3.8,0.6v1.2h-14v-1.2c2.8,0,5.1-2.5,7.1-7.4l11.2-28c0.2-0.7,0.6-1.4,0.9-2.2c1.4-3.2,2.2-4.8,2.7-4.8
			c0.3,0,0.7,0.4,1.2,1.4c0.4,0.7,1.6,3.3,3.5,7.9l11,26.7c1.1,2.5,1.9,4.1,2.4,4.7c1.1,1.2,2.6,1.7,4.8,1.7V207.2z M585.5,173.3
			c-0.1-0.3-0.2-0.7-0.5-1.2l-0.2-0.1c-0.6,0.7-1.9,3.7-3.9,8.8c-1.9,5-2.9,7.7-2.9,8.1l0.2,0.4c0.4,0.1,0.7,0.1,1.1,0.1h10.9
			c1.3,0,1.5-0.1,1.5-0.7L585.5,173.3z"/>
		<path id="XMLID_117_" class="st0" d="M657.3,207.2h-7.9c-2.5,0-2.4-0.7-5.8-5.8c-0.3-0.7-1.7-2.9-4-6.7c-2.7-4.4-4.3-6.8-4.9-7.1
			c-0.7-0.4-1.5-0.6-2.5-0.6c-1.3,0-2.5,0.1-3.8,0.2v11.6c0,3.1,0.4,5,1.2,5.7c0.6,0.6,2.5,1.1,5.6,1.4v1.2
			c-3.2-0.1-6.3-0.1-9.4-0.1c-3.2,0-6.3,0.1-9.4,0.1v-1.2c2.4,0,3.9-0.6,4.7-1.8c0.6-0.9,0.9-2.6,0.9-5.1v-26.5c0-3.1-0.2-5-0.7-5.8
			c-0.7-1.2-2.5-1.7-5.3-1.7v-1.1l15.4-0.2c4.5,0,7.9,0.2,10,0.7c3.8,0.9,6.4,2.7,7.9,5.5c0.7,1.4,1.1,2.9,1.1,4.6
			c0,5.1-3.2,8.7-9.7,10.7c0.6,0.6,1.2,1.6,2,2.9l1.9,3l5.8,8.9c1.2,1.8,2.1,3,2.9,3.8c1.3,1.4,2.6,2.2,4,2.3V207.2z M640.3,167.4
			c-1.9-1.7-4.7-2.5-8.1-2.5c-1.6,0-2.6,0.2-3.2,0.6c-0.7,0.6-1,1.6-1,3.2V184c0,1.1,0.7,1.6,2.3,1.6c8.6,0,13-3.5,13-10.5
			C643.4,171.7,642.4,169.2,640.3,167.4z"/>
	</g>
	<g id="XMLID_302_">
		<linearGradient id="XMLID_4_" gradientUnits="userSpaceOnUse" x1="34.4521" y1="92.9554" x2="541.6829" y2="99.4306">
			<stop  offset="0" style="stop-color:#4CB748"/>
			<stop  offset="1" style="stop-color:#F9ED23"/>
		</linearGradient>
		<path id="XMLID_315_" class="st1" d="M359.6,82.3c-2.4,7.6-14.4,41.1-19.5,41.1c-6-0.2,2.6-36,2.7-41.8c0.2-2.4-0.5-5-3.8-4.9
			c-4.4,0-10.7,4.4-17.4,3.2c1.5-6.6,2.6-18.9-4.4-19.1c-6.8,0-9.8,16.2-0.7,22.4c-3.1,11.5-13.7,35.8-26.2,35.9
			c-8.7,0-9.5-14.5-7.8-24.6c21.4-2.9,26.7-27.6,8.7-28.2c-10.7-0.4-17.8,8.2-20.9,18.9c-2.4,3.5-6.9,6.9-12.6,6.6
			c0.9-4.1,4.4-21.1-1.4-22.3c-6.7-1.4-9.5,16.9-3.4,25c-2.1,9.3-7.9,26.4-10.7,27.6c-5.2,0.8-6.7-45.4-6.4-53.1
			c0.2-3.5-12.5-2.3-12.5,0.5c-0.2,4.2-0.1,9.5,0.2,15.2c-3.6,12-13.8,34.3-25.7,34.4c-8.7,0-9.5-14.5-7.8-24.6
			c21.4-2.9,26.7-27.6,8.7-28.2c-11.9-0.5-19.3,10.1-21.7,22.5c-4.4,12.3-13.1,34.6-17.3,34.6c-6-0.2,2.6-36,2.7-41.8
			c0.2-2.4-0.5-5-3.8-4.9c-4.4,0-10.7,4.4-17.4,3.2c1.5-6.6,2.6-18.9-4.4-19.1c-6.8,0-9.7,16.2-0.8,22.3c-2,5.8-6.6,14.5-12.7,15.2
			c0.8-4.1,2.7-13.1-3.1-14.2c-5.8-0.9-8.2,12.5-1.4,16.8c-1.2,4.9-5.2,18.6-11,18.5c-10.7-0.2-5-45.2,3.8-44.9
			c5.6,0.2,0.8,8.6,5.3,8.4c4.9-0.2,5.2-12.2-6.9-12.2c-27.2-0.2-25.8,56-4.6,54.7c10.1-0.6,14.8-14.7,16.8-23.4
			c8.2,0.3,14.1-9.9,16.8-17.3c2.6,0.9,5.8,1.1,9.8,0.4c-4.1,19.1-7.5,45.5,8.7,45.3c6.8,0.2,13.7-14.5,18.7-28.1
			c1.3,12.1,7.5,22.7,19.3,22.7c13.2,0,23.2-16.8,28.6-31.1c2,18.1,6.9,36.6,16.9,35.1c6.3-0.9,13.1-21.8,15.6-33
			c4.7,0.2,8.9-1.5,12.1-4.1c-2,15.8,4.1,33.1,19.2,33.1c16.3,0,27.6-25.4,31.6-40.3c2.6,0.8,5.7,1,9.6,0.3
			c-4.1,19.1-7.5,45.5,8.7,45.3c10.7,0.3,21.8-36.5,24.9-47.2C363.3,82,359.8,81.3,359.6,82.3z M293.2,70.2c3.8,0.2,3.5,16-9.9,20
			C285.7,78.9,289.6,70,293.2,70.2z M200.9,70.2c3.8,0.2,3.5,16-9.9,20C193.4,78.9,197.2,70,200.9,70.2z"/>
		<linearGradient id="XMLID_5_" gradientUnits="userSpaceOnUse" x1="34.7876" y1="66.6326" x2="542.0182" y2="73.1079">
			<stop  offset="0" style="stop-color:#4CB748"/>
			<stop  offset="1" style="stop-color:#F9ED23"/>
		</linearGradient>
		<path id="XMLID_312_" class="st2" d="M447.3,10.5c-17.9-1.2-31.9,14.7-40.3,35.6c-11.5-4.9-19.4-14.4-18.6-26.4
			c0.3-7.5,6.4-8.2,7.2-13.6c0.5-4.4-7.3-6.1-10.1,1.2c-8.4,19.4,2.3,36.6,19.4,44.7c-12.7,37.7-7.6,87.6,24.6,88.6
			c34.7,0.5,39.4-54.8,16.3-52.1c-6.7,0.8-10.2,8.2-6.7,8.1c3.7,0,4.9-5,9.3-4.3c12.2,2,8.6,42.3-18,41.8
			c-20.9,0.3-21.7-44.6-11.3-78.8C470.5,60.3,477.4,12.2,447.3,10.5z M450.7,17.1c15.6,0.6,13,36.2-29.8,33
			C427.7,31.6,438.3,16.6,450.7,17.1z"/>
		<linearGradient id="XMLID_6_" gradientUnits="userSpaceOnUse" x1="33.2899" y1="183.989" x2="540.5211" y2="190.4642">
			<stop  offset="0" style="stop-color:#4CB748"/>
			<stop  offset="1" style="stop-color:#F9ED23"/>
		</linearGradient>
		<path id="XMLID_311_" class="st3" d="M65.4,165.8c-7.7,4.3-14.2,8.5-19.3,12.3c-5.1,3.7-9,7-11.6,9.1c-1.6,1.4-2.7,2.4-3.4,2.9
			c-8,5.9-14,15.8-7.8,18.7c8.7,4.3,6.7-8.3,11.9-14.6c0.6-0.6,1.6-1.5,3-2.9c2.4-2.3,6.1-5.5,10.9-9.3c4.9-3.8,11-8.2,18.5-12.4
			c4.3-2.5,9.1-4.9,14.3-7.2l-2.1-3.7C74.4,161,69.9,163.4,65.4,165.8z"/>
		<linearGradient id="XMLID_7_" gradientUnits="userSpaceOnUse" x1="34.7481" y1="69.7628" x2="541.9788" y2="76.2381">
			<stop  offset="0" style="stop-color:#4CB748"/>
			<stop  offset="1" style="stop-color:#F9ED23"/>
		</linearGradient>
		<path id="XMLID_310_" class="st4" d="M29.7,140.2c11.9-1,20-8.5,25.5-19.4l1.7-3.7c4.8-11.2,7.3-25.4,8.5-39.6
			c7.5,1.4,14.8,0.3,21.2-11.6c1.5-2.9-1.1-4.4-2.6-2.3c-5.5,7.9-11.6,8.6-18.2,7.6c1.2-18.9,1.1-35.4,0.8-47
			c6.1,1.1,11.8,2.1,16.5,2.7c14.8,1.8,28.1-0.9,30.5-13.6c1.5-8.2-9.2-16.3-13-12.1c-3.1,3.7,9.9,5.3,8.7,11.6
			c-1.8,9.9-12.5,9.2-25.2,7.5c-13.9-1.7-37.4-6.1-50.1-6.9C17.3,12.3,2.4,20.6,0.2,35.1c-1.5,10.4,5,21.2,18,22.3
			c3.4,0.3,10.2-0.2,10.7-3.8c0.8-4-7.6-2.9-10.4-3.2C8.6,49.3,3.4,42.1,4.6,34.5c2-12.1,15.1-16.3,28.6-15.6
			c5.2,0.3,12.4,1.5,20,2.7c0,9.8-0.2,27.2-1.1,47c-5.2-0.3-10.4,0.5-15.6,4.9c-1.8,1.5-0.5,4.9,1.7,3.2c4.3-3.2,8.9-3.4,13.6-2.6
			c-0.8,12.9-2.4,25.8-5.1,36.4l-1.1,3.8c-3.7,12.2-9.3,20.4-17.6,20.4c-0.8,0-1.6-0.1-2.4-0.2c-0.1,0-0.2-0.1-0.3-0.1
			c-1.4-0.4-3.1-1-4.7-2.1c-1.6-1.1-3-2.7-3.7-5.1c-0.7-2.4-0.5-5.5,0.4-8.8c0.4-1.4,1.2-2.9,2.3-4.2c1.1-1.2,2.6-2.3,4.3-3
			c3.5-1.5,7.9-1.6,12.4-0.5c2.2,0.5,4.4,1.3,6.7,2.3l1.3-3.7c-2.3-1-4.6-1.9-7-2.5c-5-1.3-10.3-1.5-15,0.2c-2.3,0.9-4.5,2.2-6.2,4
			c-1.7,1.8-2.8,3.8-3.6,6c-0.7,2-1,3.9-1.2,5.9c-0.2,2-0.1,3.9,0.4,5.8c0.5,1.8,1.3,3.6,2.3,5c0.9,1.2,1.8,2.1,2.8,2.9
			c0,0,3.3,2.6,6.7,3.4C26.4,140.6,29.7,140.2,29.7,140.2z"/>
		<linearGradient id="XMLID_8_" gradientUnits="userSpaceOnUse" x1="33.5236" y1="165.6782" x2="540.755" y2="172.1535">
			<stop  offset="0" style="stop-color:#4CB748"/>
			<stop  offset="1" style="stop-color:#F9ED23"/>
		</linearGradient>
		<path id="XMLID_309_" class="st5" d="M196.1,172.4c0-0.2,0,0.1,0-0.4l0-0.2l-0.1-0.6l-0.1-0.6l-0.2-0.9c-0.3-1.3-0.7-2.3-1.1-3.3
			c-0.9-2.1-2.1-3.9-3.4-5.5c-1.3-1.6-2.8-3.1-4.4-4.3c-3.2-2.5-6.5-4.3-10-5.6c-3.4-1.4-6.9-2.3-10.3-3.1
			c-13.7-2.8-27.1-3.3-39.5-1.9c-11.6,1.3-22.5,3.9-32.2,7.1l2.4,3.7c4.4-1.5,8.1-2.4,12.9-3.5c5.6-1.3,11.4-2.2,17.4-2.8
			c6-0.5,12.3-0.7,18.6-0.3c6.3,0.4,12.7,1.5,18.8,3.7c6,2.2,11.8,5.4,15.9,9.6c2.1,2.1,3.6,4.4,4.5,6.8c0.2,0.6,0.4,1.3,0.5,1.7
			c0.1,0.1,0.3,1.9,0.3,2c0.2,1.4,0.2,2.8,0.1,4.3c-0.4,5.7-2.7,11.7-6.7,16.8c-4,5.1-9.7,9-16,11c-3.2,1-6.4,1.7-9.8,1.8
			c-3.3,0.2-6.6-0.1-9.9-0.7c-6.5-1.3-12.6-4.1-18-7.9c-2.7-1.9-5.2-4-7.6-6.3c-2.4-2.3-4.6-4.7-6.7-7.3c-4.2-5-7.8-10.6-11-16.1
			c-0.8-1.4-1.6-3-2.4-4.3c-0.8-1.5-1.6-3-2.5-4.4c-0.6-1-1.2-2.1-1.9-3.1l-2.3-3.6c-0.4-0.6-0.8-1.2-1.2-1.8
			c-3.7-5.5-7.8-10.6-11.9-15.3c-2.1-2.4-4.2-4.6-6.4-6.8c-2.1-2.2-4.3-4.3-6.5-6.3c-2.1-1.9-4.2-3.7-6.3-5.3l-1.7,3.9
			c1.7,1.4,3.3,3,4.9,4.7c2,2.1,3.8,4.3,5.7,6.5c1.8,2.3,3.6,4.7,5.2,7.2c3.3,5,6.5,10.4,9.5,16c0.1,0.1,0.1,0.3,0.2,0.4l2,3.8
			c0.8,1.4,1.5,2.9,2.3,4.3c0.7,1.4,1.5,2.9,2.3,4.3c0.8,1.6,1.6,2.9,2.4,4.5c1.8,3.1,3.6,6.1,5.6,9c2.1,2.9,4.3,5.8,6.7,8.5
			c4.8,5.4,10.5,10.4,16.9,14.3c6.4,4,13.7,6.8,21.3,7.9c3.8,0.6,7.7,0.7,11.5,0.4c3.8-0.3,7.6-1.1,11.3-2.3
			c7.3-2.5,14.1-6.4,19.8-11.8c2.9-2.7,5.4-5.9,7.3-9.4c1.9-3.6,3.3-7.6,3.7-11.7c0.2-2.1,0.2-4.2,0-6.3L196.1,172.4z"/>
		<linearGradient id="XMLID_9_" gradientUnits="userSpaceOnUse" x1="34.7225" y1="71.7064" x2="541.9531" y2="78.1817">
			<stop  offset="0" style="stop-color:#4CB748"/>
			<stop  offset="1" style="stop-color:#F9ED23"/>
		</linearGradient>
		<path id="XMLID_303_" class="st6" d="M684.4,88.9c-0.3-4.5-1.3-8.9-3.2-13.1c-1.8-4.2-4.7-8.1-8.2-11.1c-3.6-3-8-5.1-12.5-5.9
			c-4.5-0.8-9.1-0.4-13.2,0.8c-4.2,1.1-8,3-11.4,5.1c-3.5,2.1-6.7,4.5-9.7,7.1c-6,5.1-11,10.7-15.6,16.2c-2.2,2.8-4.4,5.5-6.4,8.2
			c-2,2.7-3.9,5.1-5.9,7.4c-3.9,4.6-7.8,8.4-11.6,11c-1.9,1.3-3.7,2.4-5.5,3.1c-1.8,0.7-3.4,1-4.9,1.1c0,0,0,0,0,0
			c-1.9,0.2-3.8-0.5-5-1.9c-4-4.4-4.2-14.7-2.9-22.4c21.4-2.9,26.7-27.6,8.7-28.2c-13.5-0.5-21.2,13.1-22.4,27.3c0,0,0,0,0,0
			c-3.9,12.8-10,30.6-13.8,30.7c-5.3,0.2-1.4-43.7,1.8-72.1c19.1-3.2,40.6-8.7,51.8-1.5c1.1,0.8,3.8-2.6,1.7-3.8
			c-12.2-7.6-34.5-2-53,1.2c1.1-10.2,2.1-17.9,2.3-19.5c0.5-3.4-12.2-3.5-12.7-0.8c-0.5,3.4-1.8,11.6-3.2,22
			c-11.1,0.6-18.9-2.1-18.2-14c0.2-2.6-5.3-2.6-5.5,0.2c-0.8,15.6,9.3,18.8,23.2,18c-1.3,9.9-2.5,21.2-3,32.2
			c-3.5,11.6-12.2,38.4-16.7,38.2c-5.2-0.2,0.9-37.6,2.3-45.4c0.6-3.5-12.1-4.3-12.5-1.5c-0.6,2.9-1.1,6-1.5,9.3
			c-3.4,10.7-10.7,32.4-15.1,32.2c-5.3,0,0-37.9,1.5-45.7c0.6-3.5-12.1-4.3-12.7-1.5c-3.4,18.8-6.1,53.1,9,53
			c6.4,0.3,11.9-10.4,15.9-21.4c-0.5,14,1.8,26.7,11.1,26.7c7.3,0.2,14.1-16.5,18.5-30.6c0.4,17.4,3.6,31,13.1,30.6
			c6.4-0.1,12-12.4,16.1-24.7c1.9,10.8,8.1,19.6,18.9,19.7c7.9,0.1,13.7-4.4,15.9-6c2.2-1.6,4.3-3.5,6.3-5.5c2-2.1,4-4.4,5.9-7
			c1.9-2.5,3.7-5.3,5.5-8.1c1.8-2.8,3.6-5.6,5.7-8.4c2.1-2.8,4.3-5.6,6.8-8.3c2.4-2.7,5.1-5.3,8-7.7c5.7-4.8,12.7-8.9,20.2-10.3
			c3.7-0.6,7.5-0.5,11,0.6c3.5,1,6.5,3,8.9,5.6c2.5,2.5,4.2,5.7,5.5,9c1.2,3.4,1.9,7,2.1,10.6c0.2,3.6-0.1,7.2-0.7,10.8
			c-0.2,0.9-0.4,1.8-0.6,2.6l-0.3,1.2l-0.4,1.4l-0.4,1.1l-0.5,1.1c-0.3,0.7-0.7,1.5-1.1,2.2c-1.6,2.8-3.8,5.3-6.5,7.3
			c-2.7,1.9-5.7,3.3-8.9,4.2c-6.4,1.7-13.1,1-18.3-1.6c-2.6-1.3-4.9-3-6.6-5c-1.7-2-2.8-4.3-3.4-6.6c-1.2-4.6-0.4-8.9,0.6-12.2
			c1.1-3.3,2.4-5.7,3.3-7.3c0.4-0.7,0.8-1.3,1-1.7c0,0,0.2-0.2,0.2-0.4c0.1-0.1,0.2-0.2,0.2-0.3c2.9-4.2,11-4.7,7.2-9.4
			c-2.4-3.1-7.1,1.2-9.6,6.3c-0.2,0.4-1,2.1-1.9,3.9c-0.8,1.8-2,4.5-2.9,8.1c-0.9,3.6-1.6,8.2-0.3,13.4c0.6,2.6,1.9,5.1,3.7,7.5
			c1.8,2.3,4.3,4.3,7.1,5.9c5.7,3.2,12.8,4.6,20.4,3.8c3.8-0.4,7.6-1.5,11.3-3.4c3.7-1.9,7.1-4.7,9.7-8.3c0.6-0.9,1.3-1.8,1.8-2.8
			l0.8-1.5l0.7-1.6l0.5-1.4l0.5-1.6c0.3-1,0.6-2.1,0.9-3.1C684.4,97.8,684.8,93.4,684.4,88.9z M579.1,70.2c3.8,0.2,3.5,16-9.9,20
			C571.6,78.9,575.4,70,579.1,70.2z M561,82.4c-0.1-0.1-0.3-0.2-0.4-0.3C560.8,82.2,560.9,82.3,561,82.4z M560,81.9
			c-0.3-0.1-0.6-0.1-1-0.1C559.4,81.8,559.7,81.8,560,81.9z M560.8,84.9c-0.2,1-0.5,2.2-0.8,3.5C560.2,87.1,560.5,85.9,560.8,84.9
			c0.2-0.7,0.3-1.3,0.4-1.9C561.1,83.6,560.9,84.2,560.8,84.9z"/>
	</g>
	<g id="XMLID_294_">
		
			<linearGradient id="XMLID_10_" gradientUnits="userSpaceOnUse" x1="818.8379" y1="-712.6442" x2="850.9141" y2="-713.8213" gradientTransform="matrix(0.9369 0.3497 -0.3497 0.9369 -318.6925 447.6982)">
			<stop  offset="0" style="stop-color:#4CB748"/>
			<stop  offset="1" style="stop-color:#F9ED23"/>
		</linearGradient>
		<path id="XMLID_296_" class="st8" d="M691.1,72.6c0,0,7-26,46.9-12.8c0,0-1.8,1.4-7.1,6.8c-8.4,8.5-14.4,11.4-32.4,8.5
			c-3.3-0.5-8.7-1-10.8,8c0,0,1.5-19.9,29.6-22.1C717.4,60.9,698.3,59.1,691.1,72.6z"/>
		
			<linearGradient id="XMLID_11_" gradientUnits="userSpaceOnUse" x1="-3494.2607" y1="-771.5723" x2="-3462.1831" y2="-772.7494" gradientTransform="matrix(-0.8951 -0.4458 -0.4458 0.8951 -1432.2095 -41.1033)">
			<stop  offset="0" style="stop-color:#4CB748"/>
			<stop  offset="1" style="stop-color:#F9ED23"/>
		</linearGradient>
		<path id="XMLID_295_" class="st9" d="M690.3,82.2c0,0-2,7.8,3.7,13.6c0,0-7-4.2-6.3-12.1c0,0-5.6,18.1,13.7,20.7
			c0,0-1.7-3.6-3.2-11.7C696.8,84.7,690.3,82.2,690.3,82.2z"/>
	</g>
</g>
</svg>
